<?xml version="1.0" encoding="UTF-8" standalone="no"?>
<!-- Generator: Adobe Illustrator 17.0.1, SVG Export Plug-In . SVG Version: 6.00 Build 0)  -->

<svg
   xmlns:dc="http://purl.org/dc/elements/1.1/"
   xmlns:cc="http://creativecommons.org/ns#"
   xmlns:rdf="http://www.w3.org/1999/02/22-rdf-syntax-ns#"
   xmlns:svg="http://www.w3.org/2000/svg"
   xmlns="http://www.w3.org/2000/svg"
   xmlns:sodipodi="http://sodipodi.sourceforge.net/DTD/sodipodi-0.dtd"
   xmlns:inkscape="http://www.inkscape.org/namespaces/inkscape"
   version="1.1"
   x="0px"
   y="0px"
   width="512"
   height="512"
   viewBox="0 0 512 512"
   enable-background="new 0 0 86 86"
   xml:space="preserve"
   id="svg2"
   inkscape:version="0.92+devel unknown"
   sodipodi:docname="cover.svg"><metadata
     id="metadata49"><rdf:RDF><cc:Work
         rdf:about=""><dc:format>image/svg+xml</dc:format><dc:type
           rdf:resource="http://purl.org/dc/dcmitype/StillImage" /><dc:title></dc:title></cc:Work></rdf:RDF></metadata><defs
     id="defs47"></defs><sodipodi:namedview
     pagecolor="#cccccc"
     bordercolor="#666666"
     borderopacity="1"
     objecttolerance="10"
     gridtolerance="10"
     guidetolerance="10"
     inkscape:pageopacity="0"
     inkscape:pageshadow="2"
     inkscape:window-width="1920"
     inkscape:window-height="1136"
     id="namedview45"
     showgrid="true"
     inkscape:zoom="1.8164062"
     inkscape:cx="256"
     inkscape:cy="256"
     inkscape:window-x="0"
     inkscape:window-y="27"
     inkscape:window-maximized="1"
     inkscape:current-layer="svg2"
     inkscape:showpageshadow="false"><inkscape:grid
       type="xygrid"
       id="grid10146"
       empspacing="8"
       visible="true"
       enabled="true"
       snapvisiblegridlinesonly="true"
       spacingx="8"
       spacingy="8" /></sodipodi:namedview><g
     id="Layer_2"
     display="none"
     style="display:none"
     transform="translate(0,426)" /><g
     id="g17"
     transform="matrix(5.9302326,0,0,5.9302326,0.9999982,0.9999982)"><path
       id="path831"
       d="M 21.5,21.5 C 9.6258779,21.5 0,31.125878 0,43 0,54.874122 9.6258779,64.5 21.5,64.5 33.374122,64.5 43,54.874122 43,43 43,31.125878 33.374122,21.5 21.5,21.5 Z m 0,12.5 a 9,9 0 0 1 9,9 9,9 0 0 1 -9,9 9,9 0 0 1 -9,-9 9,9 0 0 1 9,-9 z"
       style="fill:#ffffff;fill-opacity:1;stroke-width:5.375;stroke-linecap:round"
       inkscape:connector-curvature="0" /><path
       id="path831-3"
       d="M 64.5,21.5 C 52.625878,21.5 43,31.125878 43,43 43,54.874122 52.625878,64.5 64.5,64.5 76.374122,64.5 86,54.874122 86,43 86,31.125878 76.374122,21.5 64.5,21.5 Z m 0,12.5 a 9,9 0 0 1 9,9 9,9 0 0 1 -9,9 9,9 0 0 1 -9,-9 9,9 0 0 1 9,-9 z"
       style="fill:#ffffff;fill-opacity:1;stroke-width:5.375;stroke-linecap:round"
       inkscape:connector-curvature="0" /></g></svg>
